<mxfile host="Electron" modified="2023-09-01T23:30:06.062Z" agent="Mozilla/5.0 (Windows NT 10.0; Win64; x64) AppleWebKit/537.36 (KHTML, like Gecko) draw.io/21.6.8 Chrome/114.0.5735.289 Electron/25.5.0 Safari/537.36" etag="FsjAP4rcnbKxqat2Zr16" version="21.6.8" type="device">
  <diagram name="Página-1" id="DozZHBBMQy7a1vYMkqmq">
    <mxGraphModel dx="2398" dy="938" grid="1" gridSize="10" guides="1" tooltips="1" connect="1" arrows="1" fold="1" page="1" pageScale="1" pageWidth="827" pageHeight="1169" math="0" shadow="0">
      <root>
        <mxCell id="0" />
        <mxCell id="1" parent="0" />
        <mxCell id="6OpeOHHLTcoQ0Xgv4RMJ-209" value="" style="rounded=0;whiteSpace=wrap;html=1;" parent="1" vertex="1">
          <mxGeometry x="51" y="740" width="349" height="480" as="geometry" />
        </mxCell>
        <mxCell id="6OpeOHHLTcoQ0Xgv4RMJ-208" value="" style="rounded=0;whiteSpace=wrap;html=1;" parent="1" vertex="1">
          <mxGeometry x="53.5" y="1922" width="349" height="380" as="geometry" />
        </mxCell>
        <mxCell id="6OpeOHHLTcoQ0Xgv4RMJ-32" value="PACIENTE&lt;br&gt;" style="shape=umlActor;verticalLabelPosition=bottom;verticalAlign=top;html=1;outlineConnect=0;" parent="1" vertex="1">
          <mxGeometry x="-20" y="969" width="42" height="70" as="geometry" />
        </mxCell>
        <mxCell id="6OpeOHHLTcoQ0Xgv4RMJ-55" style="edgeStyle=none;rounded=0;orthogonalLoop=1;jettySize=auto;html=1;exitX=1;exitY=1;exitDx=0;exitDy=0;exitPerimeter=0;" parent="1" source="6OpeOHHLTcoQ0Xgv4RMJ-32" target="6OpeOHHLTcoQ0Xgv4RMJ-32" edge="1">
          <mxGeometry relative="1" as="geometry" />
        </mxCell>
        <mxCell id="6OpeOHHLTcoQ0Xgv4RMJ-56" style="edgeStyle=none;rounded=0;orthogonalLoop=1;jettySize=auto;html=1;exitX=0.5;exitY=0;exitDx=0;exitDy=0;exitPerimeter=0;" parent="1" source="6OpeOHHLTcoQ0Xgv4RMJ-32" target="6OpeOHHLTcoQ0Xgv4RMJ-32" edge="1">
          <mxGeometry relative="1" as="geometry" />
        </mxCell>
        <mxCell id="6OpeOHHLTcoQ0Xgv4RMJ-57" style="edgeStyle=none;rounded=0;orthogonalLoop=1;jettySize=auto;html=1;exitX=0;exitY=1;exitDx=0;exitDy=0;exitPerimeter=0;" parent="1" source="6OpeOHHLTcoQ0Xgv4RMJ-32" target="6OpeOHHLTcoQ0Xgv4RMJ-32" edge="1">
          <mxGeometry relative="1" as="geometry" />
        </mxCell>
        <mxCell id="6OpeOHHLTcoQ0Xgv4RMJ-127" value="" style="edgeStyle=none;rounded=0;orthogonalLoop=1;jettySize=auto;html=1;dashed=1;" parent="1" source="6OpeOHHLTcoQ0Xgv4RMJ-60" target="6OpeOHHLTcoQ0Xgv4RMJ-126" edge="1">
          <mxGeometry relative="1" as="geometry" />
        </mxCell>
        <mxCell id="6OpeOHHLTcoQ0Xgv4RMJ-128" value="INCLUSÃO" style="edgeLabel;html=1;align=center;verticalAlign=middle;resizable=0;points=[];fontSize=6;" parent="6OpeOHHLTcoQ0Xgv4RMJ-127" vertex="1" connectable="0">
          <mxGeometry x="-0.0483" y="1" relative="1" as="geometry">
            <mxPoint as="offset" />
          </mxGeometry>
        </mxCell>
        <mxCell id="6OpeOHHLTcoQ0Xgv4RMJ-136" style="edgeStyle=none;rounded=0;orthogonalLoop=1;jettySize=auto;html=1;entryX=0;entryY=1;entryDx=0;entryDy=0;dashed=1;" parent="1" source="6OpeOHHLTcoQ0Xgv4RMJ-60" target="6OpeOHHLTcoQ0Xgv4RMJ-133" edge="1">
          <mxGeometry relative="1" as="geometry" />
        </mxCell>
        <mxCell id="6OpeOHHLTcoQ0Xgv4RMJ-137" value="INCLUSÃO" style="edgeLabel;html=1;align=center;verticalAlign=middle;resizable=0;points=[];fontSize=6;" parent="6OpeOHHLTcoQ0Xgv4RMJ-136" vertex="1" connectable="0">
          <mxGeometry x="-0.0147" y="1" relative="1" as="geometry">
            <mxPoint as="offset" />
          </mxGeometry>
        </mxCell>
        <mxCell id="6OpeOHHLTcoQ0Xgv4RMJ-60" value="REALIZAR CADASTRO" style="ellipse;whiteSpace=wrap;html=1;fontSize=8;" parent="1" vertex="1">
          <mxGeometry x="173" y="924" width="59" height="40" as="geometry" />
        </mxCell>
        <mxCell id="6OpeOHHLTcoQ0Xgv4RMJ-118" value="" style="edgeStyle=none;rounded=0;orthogonalLoop=1;jettySize=auto;html=1;entryX=0.001;entryY=0.641;entryDx=0;entryDy=0;entryPerimeter=0;dashed=1;" parent="1" source="6OpeOHHLTcoQ0Xgv4RMJ-70" target="6OpeOHHLTcoQ0Xgv4RMJ-88" edge="1">
          <mxGeometry relative="1" as="geometry" />
        </mxCell>
        <mxCell id="6OpeOHHLTcoQ0Xgv4RMJ-122" value="&lt;font style=&quot;font-size: 6px;&quot;&gt;INCLUSÃO&lt;/font&gt;" style="edgeLabel;html=1;align=center;verticalAlign=middle;resizable=0;points=[];" parent="6OpeOHHLTcoQ0Xgv4RMJ-118" vertex="1" connectable="0">
          <mxGeometry x="-0.2243" relative="1" as="geometry">
            <mxPoint as="offset" />
          </mxGeometry>
        </mxCell>
        <mxCell id="6OpeOHHLTcoQ0Xgv4RMJ-70" value="FAZER LOGIN" style="ellipse;whiteSpace=wrap;html=1;fontSize=9;" parent="1" vertex="1">
          <mxGeometry x="174" y="975" width="59" height="40" as="geometry" />
        </mxCell>
        <mxCell id="6OpeOHHLTcoQ0Xgv4RMJ-192" value="" style="edgeStyle=none;rounded=0;orthogonalLoop=1;jettySize=auto;html=1;dashed=1;" parent="1" source="6OpeOHHLTcoQ0Xgv4RMJ-72" target="6OpeOHHLTcoQ0Xgv4RMJ-191" edge="1">
          <mxGeometry relative="1" as="geometry" />
        </mxCell>
        <mxCell id="6OpeOHHLTcoQ0Xgv4RMJ-195" value="INCLUSÃO" style="edgeLabel;html=1;align=center;verticalAlign=middle;resizable=0;points=[];fontSize=6;" parent="6OpeOHHLTcoQ0Xgv4RMJ-192" vertex="1" connectable="0">
          <mxGeometry x="-0.179" y="-2" relative="1" as="geometry">
            <mxPoint as="offset" />
          </mxGeometry>
        </mxCell>
        <mxCell id="6OpeOHHLTcoQ0Xgv4RMJ-194" style="edgeStyle=none;rounded=0;orthogonalLoop=1;jettySize=auto;html=1;entryX=0;entryY=0.5;entryDx=0;entryDy=0;dashed=1;" parent="1" source="6OpeOHHLTcoQ0Xgv4RMJ-72" target="6OpeOHHLTcoQ0Xgv4RMJ-193" edge="1">
          <mxGeometry relative="1" as="geometry" />
        </mxCell>
        <mxCell id="6OpeOHHLTcoQ0Xgv4RMJ-196" value="INCLUSÃO" style="edgeLabel;html=1;align=center;verticalAlign=middle;resizable=0;points=[];fontSize=6;" parent="6OpeOHHLTcoQ0Xgv4RMJ-194" vertex="1" connectable="0">
          <mxGeometry x="-0.0493" relative="1" as="geometry">
            <mxPoint as="offset" />
          </mxGeometry>
        </mxCell>
        <mxCell id="6OpeOHHLTcoQ0Xgv4RMJ-204" value="" style="edgeStyle=none;rounded=0;orthogonalLoop=1;jettySize=auto;html=1;exitX=0.978;exitY=0.418;exitDx=0;exitDy=0;exitPerimeter=0;dashed=1;" parent="1" source="6OpeOHHLTcoQ0Xgv4RMJ-72" target="6OpeOHHLTcoQ0Xgv4RMJ-203" edge="1">
          <mxGeometry relative="1" as="geometry">
            <mxPoint x="232.99979816219363" y="1056.9861391441398" as="sourcePoint" />
          </mxGeometry>
        </mxCell>
        <mxCell id="6OpeOHHLTcoQ0Xgv4RMJ-205" value="&lt;font style=&quot;font-size: 6px;&quot;&gt;INCLUSÃO&lt;/font&gt;" style="edgeLabel;html=1;align=center;verticalAlign=bottom;resizable=0;points=[];" parent="6OpeOHHLTcoQ0Xgv4RMJ-204" vertex="1" connectable="0">
          <mxGeometry x="-0.2286" y="-1" relative="1" as="geometry">
            <mxPoint as="offset" />
          </mxGeometry>
        </mxCell>
        <mxCell id="6OpeOHHLTcoQ0Xgv4RMJ-269" value="" style="edgeStyle=none;rounded=0;orthogonalLoop=1;jettySize=auto;html=1;dashed=1;exitX=0.5;exitY=1;exitDx=0;exitDy=0;" parent="1" source="6OpeOHHLTcoQ0Xgv4RMJ-72" target="6OpeOHHLTcoQ0Xgv4RMJ-268" edge="1">
          <mxGeometry relative="1" as="geometry" />
        </mxCell>
        <mxCell id="6OpeOHHLTcoQ0Xgv4RMJ-72" value="AGENDAR CONSULTA" style="ellipse;whiteSpace=wrap;html=1;fontSize=8;" parent="1" vertex="1">
          <mxGeometry x="174" y="1030" width="59" height="40" as="geometry" />
        </mxCell>
        <mxCell id="6OpeOHHLTcoQ0Xgv4RMJ-78" value="" style="endArrow=none;html=1;rounded=0;entryX=0;entryY=0.5;entryDx=0;entryDy=0;exitX=1;exitY=0.3333333333333333;exitDx=0;exitDy=0;exitPerimeter=0;" parent="1" source="6OpeOHHLTcoQ0Xgv4RMJ-32" target="6OpeOHHLTcoQ0Xgv4RMJ-60" edge="1">
          <mxGeometry width="50" height="50" relative="1" as="geometry">
            <mxPoint x="116" y="993" as="sourcePoint" />
            <mxPoint x="186.99999999999943" y="958" as="targetPoint" />
          </mxGeometry>
        </mxCell>
        <mxCell id="6OpeOHHLTcoQ0Xgv4RMJ-80" value="" style="endArrow=none;html=1;rounded=0;entryX=0.035;entryY=0.437;entryDx=0;entryDy=0;entryPerimeter=0;" parent="1" target="6OpeOHHLTcoQ0Xgv4RMJ-70" edge="1">
          <mxGeometry width="50" height="50" relative="1" as="geometry">
            <mxPoint x="20" y="992" as="sourcePoint" />
            <mxPoint x="185.99999999999943" y="1018" as="targetPoint" />
          </mxGeometry>
        </mxCell>
        <mxCell id="6OpeOHHLTcoQ0Xgv4RMJ-81" value="" style="endArrow=none;html=1;rounded=0;entryX=-0.014;entryY=0.4;entryDx=0;entryDy=0;entryPerimeter=0;" parent="1" edge="1">
          <mxGeometry width="50" height="50" relative="1" as="geometry">
            <mxPoint x="21" y="992" as="sourcePoint" />
            <mxPoint x="174.17399999999998" y="1048" as="targetPoint" />
            <Array as="points" />
          </mxGeometry>
        </mxCell>
        <mxCell id="6OpeOHHLTcoQ0Xgv4RMJ-87" style="edgeStyle=none;rounded=0;orthogonalLoop=1;jettySize=auto;html=1;exitX=0.75;exitY=0;exitDx=0;exitDy=0;" parent="1" edge="1">
          <mxGeometry relative="1" as="geometry">
            <mxPoint x="256.25" y="733" as="sourcePoint" />
            <mxPoint x="256.25" y="733" as="targetPoint" />
          </mxGeometry>
        </mxCell>
        <mxCell id="6OpeOHHLTcoQ0Xgv4RMJ-88" value="VERIFICAR SENHA" style="ellipse;whiteSpace=wrap;html=1;fontSize=7;" parent="1" vertex="1">
          <mxGeometry x="290" y="944" width="55" height="26" as="geometry" />
        </mxCell>
        <mxCell id="6OpeOHHLTcoQ0Xgv4RMJ-123" value="" style="edgeStyle=none;rounded=0;orthogonalLoop=1;jettySize=auto;html=1;entryX=0.981;entryY=0.713;entryDx=0;entryDy=0;entryPerimeter=0;dashed=1;" parent="1" source="6OpeOHHLTcoQ0Xgv4RMJ-89" target="6OpeOHHLTcoQ0Xgv4RMJ-70" edge="1">
          <mxGeometry relative="1" as="geometry" />
        </mxCell>
        <mxCell id="6OpeOHHLTcoQ0Xgv4RMJ-124" value="EXTENSÃO" style="edgeLabel;html=1;align=center;verticalAlign=middle;resizable=0;points=[];fontSize=6;" parent="6OpeOHHLTcoQ0Xgv4RMJ-123" vertex="1" connectable="0">
          <mxGeometry x="-0.3767" y="1" relative="1" as="geometry">
            <mxPoint as="offset" />
          </mxGeometry>
        </mxCell>
        <mxCell id="6OpeOHHLTcoQ0Xgv4RMJ-89" value="EXIBIR ERRO DE LOGIN" style="ellipse;whiteSpace=wrap;html=1;fontSize=7;" parent="1" vertex="1">
          <mxGeometry x="290" y="989" width="55" height="30" as="geometry" />
        </mxCell>
        <mxCell id="6OpeOHHLTcoQ0Xgv4RMJ-126" value="PREENCHER&lt;br&gt;DADOS" style="ellipse;whiteSpace=wrap;html=1;fontSize=8;" parent="1" vertex="1">
          <mxGeometry x="174" y="840" width="59" height="40" as="geometry" />
        </mxCell>
        <mxCell id="6OpeOHHLTcoQ0Xgv4RMJ-133" value="CONFIRMAR&lt;br&gt;CADASTRO" style="ellipse;whiteSpace=wrap;html=1;fontSize=8;" parent="1" vertex="1">
          <mxGeometry x="263.5" y="840" width="59" height="40" as="geometry" />
        </mxCell>
        <mxCell id="6OpeOHHLTcoQ0Xgv4RMJ-166" value="MÉDICO" style="shape=umlActor;verticalLabelPosition=bottom;verticalAlign=top;html=1;outlineConnect=0;" parent="1" vertex="1">
          <mxGeometry x="-27.5" y="2143" width="42" height="70" as="geometry" />
        </mxCell>
        <mxCell id="6OpeOHHLTcoQ0Xgv4RMJ-167" style="edgeStyle=none;rounded=0;orthogonalLoop=1;jettySize=auto;html=1;exitX=1;exitY=1;exitDx=0;exitDy=0;exitPerimeter=0;" parent="1" source="6OpeOHHLTcoQ0Xgv4RMJ-166" target="6OpeOHHLTcoQ0Xgv4RMJ-166" edge="1">
          <mxGeometry relative="1" as="geometry" />
        </mxCell>
        <mxCell id="6OpeOHHLTcoQ0Xgv4RMJ-168" style="edgeStyle=none;rounded=0;orthogonalLoop=1;jettySize=auto;html=1;exitX=0.5;exitY=0;exitDx=0;exitDy=0;exitPerimeter=0;" parent="1" source="6OpeOHHLTcoQ0Xgv4RMJ-166" target="6OpeOHHLTcoQ0Xgv4RMJ-166" edge="1">
          <mxGeometry relative="1" as="geometry" />
        </mxCell>
        <mxCell id="6OpeOHHLTcoQ0Xgv4RMJ-169" style="edgeStyle=none;rounded=0;orthogonalLoop=1;jettySize=auto;html=1;exitX=0;exitY=1;exitDx=0;exitDy=0;exitPerimeter=0;" parent="1" source="6OpeOHHLTcoQ0Xgv4RMJ-166" target="6OpeOHHLTcoQ0Xgv4RMJ-166" edge="1">
          <mxGeometry relative="1" as="geometry" />
        </mxCell>
        <mxCell id="6OpeOHHLTcoQ0Xgv4RMJ-171" value="" style="edgeStyle=none;rounded=0;orthogonalLoop=1;jettySize=auto;html=1;dashed=1;" parent="1" source="6OpeOHHLTcoQ0Xgv4RMJ-175" target="6OpeOHHLTcoQ0Xgv4RMJ-188" edge="1">
          <mxGeometry relative="1" as="geometry" />
        </mxCell>
        <mxCell id="6OpeOHHLTcoQ0Xgv4RMJ-172" value="INCLUSÃO" style="edgeLabel;html=1;align=center;verticalAlign=middle;resizable=0;points=[];fontSize=6;" parent="6OpeOHHLTcoQ0Xgv4RMJ-171" vertex="1" connectable="0">
          <mxGeometry x="-0.0483" y="1" relative="1" as="geometry">
            <mxPoint as="offset" />
          </mxGeometry>
        </mxCell>
        <mxCell id="6OpeOHHLTcoQ0Xgv4RMJ-173" style="edgeStyle=none;rounded=0;orthogonalLoop=1;jettySize=auto;html=1;entryX=0;entryY=1;entryDx=0;entryDy=0;dashed=1;" parent="1" source="6OpeOHHLTcoQ0Xgv4RMJ-175" target="6OpeOHHLTcoQ0Xgv4RMJ-189" edge="1">
          <mxGeometry relative="1" as="geometry" />
        </mxCell>
        <mxCell id="6OpeOHHLTcoQ0Xgv4RMJ-174" value="INCLUSÃO" style="edgeLabel;html=1;align=center;verticalAlign=middle;resizable=0;points=[];fontSize=6;" parent="6OpeOHHLTcoQ0Xgv4RMJ-173" vertex="1" connectable="0">
          <mxGeometry x="-0.0147" y="1" relative="1" as="geometry">
            <mxPoint as="offset" />
          </mxGeometry>
        </mxCell>
        <mxCell id="6OpeOHHLTcoQ0Xgv4RMJ-175" value="REALIZAR CADASTRO" style="ellipse;whiteSpace=wrap;html=1;fontSize=8;" parent="1" vertex="1">
          <mxGeometry x="176.5" y="2099" width="59" height="40" as="geometry" />
        </mxCell>
        <mxCell id="6OpeOHHLTcoQ0Xgv4RMJ-176" value="" style="edgeStyle=none;rounded=0;orthogonalLoop=1;jettySize=auto;html=1;entryX=0.001;entryY=0.641;entryDx=0;entryDy=0;entryPerimeter=0;dashed=1;" parent="1" source="6OpeOHHLTcoQ0Xgv4RMJ-178" target="6OpeOHHLTcoQ0Xgv4RMJ-184" edge="1">
          <mxGeometry relative="1" as="geometry" />
        </mxCell>
        <mxCell id="6OpeOHHLTcoQ0Xgv4RMJ-177" value="&lt;font style=&quot;font-size: 6px;&quot;&gt;INCLUSÃO&lt;/font&gt;" style="edgeLabel;html=1;align=center;verticalAlign=middle;resizable=0;points=[];" parent="6OpeOHHLTcoQ0Xgv4RMJ-176" vertex="1" connectable="0">
          <mxGeometry x="-0.2243" relative="1" as="geometry">
            <mxPoint as="offset" />
          </mxGeometry>
        </mxCell>
        <mxCell id="6OpeOHHLTcoQ0Xgv4RMJ-178" value="FAZER LOGIN" style="ellipse;whiteSpace=wrap;html=1;fontSize=9;" parent="1" vertex="1">
          <mxGeometry x="177.5" y="2150" width="59" height="40" as="geometry" />
        </mxCell>
        <mxCell id="6OpeOHHLTcoQ0Xgv4RMJ-199" value="" style="edgeStyle=none;rounded=0;orthogonalLoop=1;jettySize=auto;html=1;dashed=1;" parent="1" source="6OpeOHHLTcoQ0Xgv4RMJ-179" target="6OpeOHHLTcoQ0Xgv4RMJ-198" edge="1">
          <mxGeometry relative="1" as="geometry" />
        </mxCell>
        <mxCell id="6OpeOHHLTcoQ0Xgv4RMJ-206" value="&lt;font style=&quot;font-size: 6px;&quot;&gt;INCLUSÃO&lt;/font&gt;" style="edgeLabel;html=1;align=center;verticalAlign=bottom;resizable=0;points=[];" parent="6OpeOHHLTcoQ0Xgv4RMJ-199" vertex="1" connectable="0">
          <mxGeometry x="-0.2185" y="-1" relative="1" as="geometry">
            <mxPoint as="offset" />
          </mxGeometry>
        </mxCell>
        <mxCell id="6OpeOHHLTcoQ0Xgv4RMJ-179" value="ACESSAR&lt;br&gt;AGENDA" style="ellipse;whiteSpace=wrap;html=1;fontSize=8;" parent="1" vertex="1">
          <mxGeometry x="177.5" y="2205" width="59" height="40" as="geometry" />
        </mxCell>
        <mxCell id="6OpeOHHLTcoQ0Xgv4RMJ-180" value="" style="endArrow=none;html=1;rounded=0;entryX=0;entryY=0.5;entryDx=0;entryDy=0;exitX=1;exitY=0.3333333333333333;exitDx=0;exitDy=0;exitPerimeter=0;" parent="1" source="6OpeOHHLTcoQ0Xgv4RMJ-166" target="6OpeOHHLTcoQ0Xgv4RMJ-175" edge="1">
          <mxGeometry width="50" height="50" relative="1" as="geometry">
            <mxPoint x="119.5" y="2168" as="sourcePoint" />
            <mxPoint x="190.49999999999943" y="2133" as="targetPoint" />
          </mxGeometry>
        </mxCell>
        <mxCell id="6OpeOHHLTcoQ0Xgv4RMJ-181" value="" style="endArrow=none;html=1;rounded=0;entryX=0.035;entryY=0.437;entryDx=0;entryDy=0;entryPerimeter=0;exitX=1;exitY=0.3333333333333333;exitDx=0;exitDy=0;exitPerimeter=0;" parent="1" source="6OpeOHHLTcoQ0Xgv4RMJ-166" target="6OpeOHHLTcoQ0Xgv4RMJ-178" edge="1">
          <mxGeometry width="50" height="50" relative="1" as="geometry">
            <mxPoint x="118.5" y="2168" as="sourcePoint" />
            <mxPoint x="189.49999999999943" y="2193" as="targetPoint" />
          </mxGeometry>
        </mxCell>
        <mxCell id="6OpeOHHLTcoQ0Xgv4RMJ-182" value="" style="endArrow=none;html=1;rounded=0;entryX=0.014;entryY=0.375;entryDx=0;entryDy=0;entryPerimeter=0;" parent="1" target="6OpeOHHLTcoQ0Xgv4RMJ-179" edge="1">
          <mxGeometry width="50" height="50" relative="1" as="geometry">
            <mxPoint x="14.5" y="2167" as="sourcePoint" />
            <mxPoint x="168.67399999999998" y="2216" as="targetPoint" />
            <Array as="points" />
          </mxGeometry>
        </mxCell>
        <mxCell id="6OpeOHHLTcoQ0Xgv4RMJ-183" style="edgeStyle=none;rounded=0;orthogonalLoop=1;jettySize=auto;html=1;exitX=0.75;exitY=0;exitDx=0;exitDy=0;" parent="1" edge="1">
          <mxGeometry relative="1" as="geometry">
            <mxPoint x="248.75" y="1915" as="sourcePoint" />
            <mxPoint x="248.75" y="1915" as="targetPoint" />
          </mxGeometry>
        </mxCell>
        <mxCell id="6OpeOHHLTcoQ0Xgv4RMJ-184" value="VERIFICAR SENHA" style="ellipse;whiteSpace=wrap;html=1;fontSize=7;" parent="1" vertex="1">
          <mxGeometry x="295.5" y="2119" width="55" height="26" as="geometry" />
        </mxCell>
        <mxCell id="6OpeOHHLTcoQ0Xgv4RMJ-185" value="" style="edgeStyle=none;rounded=0;orthogonalLoop=1;jettySize=auto;html=1;entryX=0.981;entryY=0.625;entryDx=0;entryDy=0;entryPerimeter=0;dashed=1;" parent="1" source="6OpeOHHLTcoQ0Xgv4RMJ-187" target="6OpeOHHLTcoQ0Xgv4RMJ-178" edge="1">
          <mxGeometry relative="1" as="geometry" />
        </mxCell>
        <mxCell id="6OpeOHHLTcoQ0Xgv4RMJ-186" value="EXTENSÃO" style="edgeLabel;html=1;align=center;verticalAlign=bottom;resizable=0;points=[];fontSize=6;" parent="6OpeOHHLTcoQ0Xgv4RMJ-185" vertex="1" connectable="0">
          <mxGeometry x="-0.3767" y="1" relative="1" as="geometry">
            <mxPoint as="offset" />
          </mxGeometry>
        </mxCell>
        <mxCell id="6OpeOHHLTcoQ0Xgv4RMJ-187" value="EXIBIR ERRO DE LOGIN" style="ellipse;whiteSpace=wrap;html=1;fontSize=7;" parent="1" vertex="1">
          <mxGeometry x="294.5" y="2160" width="55" height="30" as="geometry" />
        </mxCell>
        <mxCell id="6OpeOHHLTcoQ0Xgv4RMJ-188" value="PREENCHER&lt;br&gt;DADOS" style="ellipse;whiteSpace=wrap;html=1;fontSize=8;" parent="1" vertex="1">
          <mxGeometry x="177.5" y="2015" width="59" height="40" as="geometry" />
        </mxCell>
        <mxCell id="6OpeOHHLTcoQ0Xgv4RMJ-189" value="CONFIRMAR&lt;br&gt;CADASTRO" style="ellipse;whiteSpace=wrap;html=1;fontSize=8;" parent="1" vertex="1">
          <mxGeometry x="267" y="2015" width="59" height="40" as="geometry" />
        </mxCell>
        <mxCell id="6OpeOHHLTcoQ0Xgv4RMJ-191" value="DEFINIR MÉDICO&lt;br&gt;" style="ellipse;whiteSpace=wrap;html=1;fontSize=6;" parent="1" vertex="1">
          <mxGeometry x="285" y="1070" width="55" height="30" as="geometry" />
        </mxCell>
        <mxCell id="6OpeOHHLTcoQ0Xgv4RMJ-193" value="DEFINIR ESPECIALIDADE" style="ellipse;whiteSpace=wrap;html=1;fontSize=6;" parent="1" vertex="1">
          <mxGeometry x="285" y="1110" width="55" height="30" as="geometry" />
        </mxCell>
        <mxCell id="6OpeOHHLTcoQ0Xgv4RMJ-197" value="DIAGRAMA DE CASOS DE USO&lt;br&gt;USUÁRIO: MÉDICO" style="text;strokeColor=none;align=center;fillColor=none;html=1;verticalAlign=middle;whiteSpace=wrap;rounded=0;" parent="1" vertex="1">
          <mxGeometry x="133" y="1956" width="190" height="30" as="geometry" />
        </mxCell>
        <mxCell id="6OpeOHHLTcoQ0Xgv4RMJ-198" value="CONFIRMAR&lt;br&gt;CONSULTA" style="ellipse;whiteSpace=wrap;html=1;fontSize=8;" parent="1" vertex="1">
          <mxGeometry x="295.5" y="2242" width="59" height="27" as="geometry" />
        </mxCell>
        <mxCell id="6OpeOHHLTcoQ0Xgv4RMJ-203" value="ACESSAR&lt;br style=&quot;font-size: 6px;&quot;&gt;CALENDÁRIO" style="ellipse;whiteSpace=wrap;html=1;fontSize=6;" parent="1" vertex="1">
          <mxGeometry x="285" y="1030" width="55" height="31" as="geometry" />
        </mxCell>
        <mxCell id="6OpeOHHLTcoQ0Xgv4RMJ-212" value="DIAGRAMA DE CASOS DE USO&lt;br&gt;USUÁRIO: PACIENTE" style="text;strokeColor=none;align=center;fillColor=none;html=1;verticalAlign=middle;whiteSpace=wrap;rounded=0;" parent="1" vertex="1">
          <mxGeometry x="130.5" y="770" width="190" height="30" as="geometry" />
        </mxCell>
        <mxCell id="6OpeOHHLTcoQ0Xgv4RMJ-213" value="" style="rounded=0;whiteSpace=wrap;html=1;" parent="1" vertex="1">
          <mxGeometry x="50.5" y="1336" width="349" height="480" as="geometry" />
        </mxCell>
        <mxCell id="6OpeOHHLTcoQ0Xgv4RMJ-215" value="ATENDENTE" style="shape=umlActor;verticalLabelPosition=bottom;verticalAlign=top;html=1;outlineConnect=0;" parent="1" vertex="1">
          <mxGeometry x="-31.5" y="1570.5" width="42" height="70" as="geometry" />
        </mxCell>
        <mxCell id="6OpeOHHLTcoQ0Xgv4RMJ-216" style="edgeStyle=none;rounded=0;orthogonalLoop=1;jettySize=auto;html=1;exitX=1;exitY=1;exitDx=0;exitDy=0;exitPerimeter=0;" parent="1" source="6OpeOHHLTcoQ0Xgv4RMJ-215" target="6OpeOHHLTcoQ0Xgv4RMJ-215" edge="1">
          <mxGeometry relative="1" as="geometry" />
        </mxCell>
        <mxCell id="6OpeOHHLTcoQ0Xgv4RMJ-217" style="edgeStyle=none;rounded=0;orthogonalLoop=1;jettySize=auto;html=1;exitX=0.5;exitY=0;exitDx=0;exitDy=0;exitPerimeter=0;" parent="1" source="6OpeOHHLTcoQ0Xgv4RMJ-215" target="6OpeOHHLTcoQ0Xgv4RMJ-215" edge="1">
          <mxGeometry relative="1" as="geometry" />
        </mxCell>
        <mxCell id="6OpeOHHLTcoQ0Xgv4RMJ-218" style="edgeStyle=none;rounded=0;orthogonalLoop=1;jettySize=auto;html=1;exitX=0;exitY=1;exitDx=0;exitDy=0;exitPerimeter=0;" parent="1" source="6OpeOHHLTcoQ0Xgv4RMJ-215" target="6OpeOHHLTcoQ0Xgv4RMJ-215" edge="1">
          <mxGeometry relative="1" as="geometry" />
        </mxCell>
        <mxCell id="6OpeOHHLTcoQ0Xgv4RMJ-220" value="" style="edgeStyle=none;rounded=0;orthogonalLoop=1;jettySize=auto;html=1;dashed=1;" parent="1" source="6OpeOHHLTcoQ0Xgv4RMJ-224" target="6OpeOHHLTcoQ0Xgv4RMJ-239" edge="1">
          <mxGeometry relative="1" as="geometry" />
        </mxCell>
        <mxCell id="6OpeOHHLTcoQ0Xgv4RMJ-221" value="INCLUSÃO" style="edgeLabel;html=1;align=center;verticalAlign=middle;resizable=0;points=[];fontSize=6;" parent="6OpeOHHLTcoQ0Xgv4RMJ-220" vertex="1" connectable="0">
          <mxGeometry x="-0.0483" y="1" relative="1" as="geometry">
            <mxPoint as="offset" />
          </mxGeometry>
        </mxCell>
        <mxCell id="6OpeOHHLTcoQ0Xgv4RMJ-222" style="edgeStyle=none;rounded=0;orthogonalLoop=1;jettySize=auto;html=1;entryX=0;entryY=1;entryDx=0;entryDy=0;dashed=1;" parent="1" source="6OpeOHHLTcoQ0Xgv4RMJ-224" target="6OpeOHHLTcoQ0Xgv4RMJ-240" edge="1">
          <mxGeometry relative="1" as="geometry" />
        </mxCell>
        <mxCell id="6OpeOHHLTcoQ0Xgv4RMJ-223" value="INCLUSÃO" style="edgeLabel;html=1;align=center;verticalAlign=middle;resizable=0;points=[];fontSize=6;" parent="6OpeOHHLTcoQ0Xgv4RMJ-222" vertex="1" connectable="0">
          <mxGeometry x="-0.0147" y="1" relative="1" as="geometry">
            <mxPoint as="offset" />
          </mxGeometry>
        </mxCell>
        <mxCell id="6OpeOHHLTcoQ0Xgv4RMJ-224" value="REALIZAR CADASTRO" style="ellipse;whiteSpace=wrap;html=1;fontSize=8;" parent="1" vertex="1">
          <mxGeometry x="173.5" y="1526" width="59" height="40" as="geometry" />
        </mxCell>
        <mxCell id="6OpeOHHLTcoQ0Xgv4RMJ-225" value="" style="edgeStyle=none;rounded=0;orthogonalLoop=1;jettySize=auto;html=1;entryX=0.001;entryY=0.641;entryDx=0;entryDy=0;entryPerimeter=0;dashed=1;" parent="1" source="6OpeOHHLTcoQ0Xgv4RMJ-227" target="6OpeOHHLTcoQ0Xgv4RMJ-235" edge="1">
          <mxGeometry relative="1" as="geometry" />
        </mxCell>
        <mxCell id="6OpeOHHLTcoQ0Xgv4RMJ-226" value="&lt;font style=&quot;font-size: 6px;&quot;&gt;INCLUSÃO&lt;/font&gt;" style="edgeLabel;html=1;align=center;verticalAlign=middle;resizable=0;points=[];" parent="6OpeOHHLTcoQ0Xgv4RMJ-225" vertex="1" connectable="0">
          <mxGeometry x="-0.2243" relative="1" as="geometry">
            <mxPoint as="offset" />
          </mxGeometry>
        </mxCell>
        <mxCell id="6OpeOHHLTcoQ0Xgv4RMJ-227" value="FAZER LOGIN" style="ellipse;whiteSpace=wrap;html=1;fontSize=9;" parent="1" vertex="1">
          <mxGeometry x="174.5" y="1577" width="59" height="40" as="geometry" />
        </mxCell>
        <mxCell id="6OpeOHHLTcoQ0Xgv4RMJ-228" value="" style="edgeStyle=none;rounded=0;orthogonalLoop=1;jettySize=auto;html=1;dashed=1;" parent="1" source="6OpeOHHLTcoQ0Xgv4RMJ-230" target="6OpeOHHLTcoQ0Xgv4RMJ-242" edge="1">
          <mxGeometry relative="1" as="geometry" />
        </mxCell>
        <mxCell id="6OpeOHHLTcoQ0Xgv4RMJ-229" value="&lt;font style=&quot;font-size: 6px;&quot;&gt;INCLUSÃO&lt;/font&gt;" style="edgeLabel;html=1;align=center;verticalAlign=bottom;resizable=0;points=[];" parent="6OpeOHHLTcoQ0Xgv4RMJ-228" vertex="1" connectable="0">
          <mxGeometry x="-0.2185" y="-1" relative="1" as="geometry">
            <mxPoint as="offset" />
          </mxGeometry>
        </mxCell>
        <mxCell id="6OpeOHHLTcoQ0Xgv4RMJ-252" value="" style="edgeStyle=none;rounded=0;orthogonalLoop=1;jettySize=auto;html=1;dashed=1;" parent="1" source="6OpeOHHLTcoQ0Xgv4RMJ-230" target="6OpeOHHLTcoQ0Xgv4RMJ-251" edge="1">
          <mxGeometry relative="1" as="geometry" />
        </mxCell>
        <mxCell id="6OpeOHHLTcoQ0Xgv4RMJ-256" value="&lt;font style=&quot;font-size: 6px;&quot;&gt;INCLUSÃO&lt;/font&gt;" style="edgeLabel;html=1;align=center;verticalAlign=middle;resizable=0;points=[];" parent="6OpeOHHLTcoQ0Xgv4RMJ-252" vertex="1" connectable="0">
          <mxGeometry x="-0.1376" relative="1" as="geometry">
            <mxPoint as="offset" />
          </mxGeometry>
        </mxCell>
        <mxCell id="6OpeOHHLTcoQ0Xgv4RMJ-254" value="" style="edgeStyle=none;rounded=0;orthogonalLoop=1;jettySize=auto;html=1;dashed=1;" parent="1" source="6OpeOHHLTcoQ0Xgv4RMJ-230" target="6OpeOHHLTcoQ0Xgv4RMJ-253" edge="1">
          <mxGeometry relative="1" as="geometry" />
        </mxCell>
        <mxCell id="6OpeOHHLTcoQ0Xgv4RMJ-255" value="&lt;font style=&quot;font-size: 6px;&quot;&gt;INCLUSÃO&lt;/font&gt;" style="edgeLabel;html=1;align=center;verticalAlign=middle;resizable=0;points=[];" parent="6OpeOHHLTcoQ0Xgv4RMJ-254" vertex="1" connectable="0">
          <mxGeometry x="-0.1413" y="1" relative="1" as="geometry">
            <mxPoint as="offset" />
          </mxGeometry>
        </mxCell>
        <mxCell id="6OpeOHHLTcoQ0Xgv4RMJ-230" value="ACESSAR&lt;br style=&quot;font-size: 6px;&quot;&gt;AGENDAMENTOS" style="ellipse;whiteSpace=wrap;html=1;fontSize=6;" parent="1" vertex="1">
          <mxGeometry x="174.5" y="1632" width="64" height="44" as="geometry" />
        </mxCell>
        <mxCell id="6OpeOHHLTcoQ0Xgv4RMJ-231" value="" style="endArrow=none;html=1;rounded=0;entryX=0;entryY=0.5;entryDx=0;entryDy=0;exitX=1;exitY=0.3333333333333333;exitDx=0;exitDy=0;exitPerimeter=0;" parent="1" source="6OpeOHHLTcoQ0Xgv4RMJ-215" target="6OpeOHHLTcoQ0Xgv4RMJ-224" edge="1">
          <mxGeometry width="50" height="50" relative="1" as="geometry">
            <mxPoint x="116.5" y="1595" as="sourcePoint" />
            <mxPoint x="187.49999999999943" y="1560" as="targetPoint" />
          </mxGeometry>
        </mxCell>
        <mxCell id="6OpeOHHLTcoQ0Xgv4RMJ-232" value="" style="endArrow=none;html=1;rounded=0;entryX=0.035;entryY=0.437;entryDx=0;entryDy=0;entryPerimeter=0;exitX=1;exitY=0.3333333333333333;exitDx=0;exitDy=0;exitPerimeter=0;" parent="1" source="6OpeOHHLTcoQ0Xgv4RMJ-215" target="6OpeOHHLTcoQ0Xgv4RMJ-227" edge="1">
          <mxGeometry width="50" height="50" relative="1" as="geometry">
            <mxPoint x="115.5" y="1595" as="sourcePoint" />
            <mxPoint x="186.49999999999943" y="1620" as="targetPoint" />
          </mxGeometry>
        </mxCell>
        <mxCell id="6OpeOHHLTcoQ0Xgv4RMJ-233" value="" style="endArrow=none;html=1;rounded=0;entryX=-0.014;entryY=0.4;entryDx=0;entryDy=0;entryPerimeter=0;exitX=1;exitY=0.3333333333333333;exitDx=0;exitDy=0;exitPerimeter=0;" parent="1" source="6OpeOHHLTcoQ0Xgv4RMJ-215" target="6OpeOHHLTcoQ0Xgv4RMJ-230" edge="1">
          <mxGeometry width="50" height="50" relative="1" as="geometry">
            <mxPoint x="8.5" y="1596" as="sourcePoint" />
            <mxPoint x="188.49999999999943" y="1681" as="targetPoint" />
            <Array as="points" />
          </mxGeometry>
        </mxCell>
        <mxCell id="6OpeOHHLTcoQ0Xgv4RMJ-234" style="edgeStyle=none;rounded=0;orthogonalLoop=1;jettySize=auto;html=1;exitX=0.75;exitY=0;exitDx=0;exitDy=0;" parent="1" edge="1">
          <mxGeometry relative="1" as="geometry">
            <mxPoint x="245.75" y="1342.0000000000002" as="sourcePoint" />
            <mxPoint x="245.75" y="1342.0000000000002" as="targetPoint" />
          </mxGeometry>
        </mxCell>
        <mxCell id="6OpeOHHLTcoQ0Xgv4RMJ-235" value="VERIFICAR SENHA" style="ellipse;whiteSpace=wrap;html=1;fontSize=7;" parent="1" vertex="1">
          <mxGeometry x="290.5" y="1546" width="55" height="30" as="geometry" />
        </mxCell>
        <mxCell id="6OpeOHHLTcoQ0Xgv4RMJ-236" value="" style="edgeStyle=none;rounded=0;orthogonalLoop=1;jettySize=auto;html=1;entryX=0.964;entryY=0.607;entryDx=0;entryDy=0;entryPerimeter=0;dashed=1;" parent="1" source="6OpeOHHLTcoQ0Xgv4RMJ-238" target="6OpeOHHLTcoQ0Xgv4RMJ-227" edge="1">
          <mxGeometry relative="1" as="geometry" />
        </mxCell>
        <mxCell id="6OpeOHHLTcoQ0Xgv4RMJ-237" value="EXTENSÃO" style="edgeLabel;html=1;align=center;verticalAlign=bottom;resizable=0;points=[];fontSize=6;" parent="6OpeOHHLTcoQ0Xgv4RMJ-236" vertex="1" connectable="0">
          <mxGeometry x="-0.3767" y="1" relative="1" as="geometry">
            <mxPoint as="offset" />
          </mxGeometry>
        </mxCell>
        <mxCell id="6OpeOHHLTcoQ0Xgv4RMJ-238" value="EXIBIR ERRO DE LOGIN" style="ellipse;whiteSpace=wrap;html=1;fontSize=7;" parent="1" vertex="1">
          <mxGeometry x="292.5" y="1586" width="55" height="35" as="geometry" />
        </mxCell>
        <mxCell id="6OpeOHHLTcoQ0Xgv4RMJ-239" value="PREENCHER&lt;br&gt;DADOS" style="ellipse;whiteSpace=wrap;html=1;fontSize=8;" parent="1" vertex="1">
          <mxGeometry x="174.5" y="1442" width="59" height="40" as="geometry" />
        </mxCell>
        <mxCell id="6OpeOHHLTcoQ0Xgv4RMJ-240" value="CONFIRMAR&lt;br&gt;CADASTRO" style="ellipse;whiteSpace=wrap;html=1;fontSize=8;" parent="1" vertex="1">
          <mxGeometry x="264" y="1442" width="59" height="40" as="geometry" />
        </mxCell>
        <mxCell id="6OpeOHHLTcoQ0Xgv4RMJ-241" value="DIAGRAMA DE CASOS DE USO&lt;br&gt;USUÁRIO: ATENDENTE" style="text;strokeColor=none;align=center;fillColor=none;html=1;verticalAlign=middle;whiteSpace=wrap;rounded=0;" parent="1" vertex="1">
          <mxGeometry x="130" y="1368" width="190" height="30" as="geometry" />
        </mxCell>
        <mxCell id="6OpeOHHLTcoQ0Xgv4RMJ-242" value="CONFIRMAR&lt;br&gt;CONSULTA" style="ellipse;whiteSpace=wrap;html=1;fontSize=8;" parent="1" vertex="1">
          <mxGeometry x="292.5" y="1732" width="59" height="36" as="geometry" />
        </mxCell>
        <mxCell id="6OpeOHHLTcoQ0Xgv4RMJ-249" value="" style="edgeStyle=none;rounded=0;orthogonalLoop=1;jettySize=auto;html=1;entryX=0.966;entryY=0.295;entryDx=0;entryDy=0;entryPerimeter=0;dashed=1;" parent="1" source="6OpeOHHLTcoQ0Xgv4RMJ-248" target="6OpeOHHLTcoQ0Xgv4RMJ-179" edge="1">
          <mxGeometry relative="1" as="geometry" />
        </mxCell>
        <mxCell id="6OpeOHHLTcoQ0Xgv4RMJ-250" value="&lt;font style=&quot;font-size: 6px;&quot;&gt;EXTENSÃO&lt;/font&gt;" style="edgeLabel;html=1;align=center;verticalAlign=bottom;resizable=0;points=[];" parent="6OpeOHHLTcoQ0Xgv4RMJ-249" vertex="1" connectable="0">
          <mxGeometry x="-0.128" y="1" relative="1" as="geometry">
            <mxPoint as="offset" />
          </mxGeometry>
        </mxCell>
        <mxCell id="6OpeOHHLTcoQ0Xgv4RMJ-248" value="PREENCHER CALENDÁRIO" style="ellipse;whiteSpace=wrap;html=1;fontSize=6;" parent="1" vertex="1">
          <mxGeometry x="295.5" y="2201" width="57" height="30" as="geometry" />
        </mxCell>
        <mxCell id="6OpeOHHLTcoQ0Xgv4RMJ-251" value="ACESSAR&amp;nbsp;&lt;br style=&quot;font-size: 7px;&quot;&gt;CALENDÁRIO" style="ellipse;whiteSpace=wrap;html=1;fontSize=7;" parent="1" vertex="1">
          <mxGeometry x="293.5" y="1634" width="55" height="40" as="geometry" />
        </mxCell>
        <mxCell id="6OpeOHHLTcoQ0Xgv4RMJ-253" value="ACESSAR&lt;br&gt;PACIENTE" style="ellipse;whiteSpace=wrap;html=1;fontSize=6;" parent="1" vertex="1">
          <mxGeometry x="294.5" y="1687" width="55" height="34" as="geometry" />
        </mxCell>
        <mxCell id="6OpeOHHLTcoQ0Xgv4RMJ-257" style="edgeStyle=none;rounded=0;orthogonalLoop=1;jettySize=auto;html=1;exitX=1;exitY=0.5;exitDx=0;exitDy=0;" parent="1" edge="1">
          <mxGeometry relative="1" as="geometry">
            <mxPoint x="351.49999999999966" y="1703" as="sourcePoint" />
            <mxPoint x="351.49999999999966" y="1703" as="targetPoint" />
          </mxGeometry>
        </mxCell>
        <mxCell id="6OpeOHHLTcoQ0Xgv4RMJ-258" value="" style="shape=umlActor;verticalLabelPosition=bottom;verticalAlign=top;html=1;outlineConnect=0;" parent="1" vertex="1">
          <mxGeometry x="453.5" y="1150" width="42" height="70" as="geometry" />
        </mxCell>
        <mxCell id="6OpeOHHLTcoQ0Xgv4RMJ-261" value="" style="shape=umlActor;verticalLabelPosition=bottom;verticalAlign=top;html=1;outlineConnect=0;" parent="1" vertex="1">
          <mxGeometry x="457.5" y="2228" width="42" height="70" as="geometry" />
        </mxCell>
        <mxCell id="6OpeOHHLTcoQ0Xgv4RMJ-262" value="" style="rounded=1;whiteSpace=wrap;html=1;fillColor=#B5FFE9;" parent="1" vertex="1">
          <mxGeometry x="428.5" y="1662" width="109" height="30" as="geometry" />
        </mxCell>
        <mxCell id="6OpeOHHLTcoQ0Xgv4RMJ-263" value="CLÍNICA" style="text;strokeColor=none;align=center;fillColor=none;html=1;verticalAlign=middle;whiteSpace=wrap;rounded=0;fontFamily=Verdana;fontSize=15;fontStyle=1" parent="1" vertex="1">
          <mxGeometry x="445.5" y="1656" width="75" height="40" as="geometry" />
        </mxCell>
        <mxCell id="6OpeOHHLTcoQ0Xgv4RMJ-266" value="" style="endArrow=none;html=1;rounded=0;entryX=0;entryY=0.3333333333333333;entryDx=0;entryDy=0;entryPerimeter=0;exitX=0.979;exitY=0.358;exitDx=0;exitDy=0;exitPerimeter=0;" parent="1" source="6OpeOHHLTcoQ0Xgv4RMJ-198" target="6OpeOHHLTcoQ0Xgv4RMJ-261" edge="1">
          <mxGeometry width="50" height="50" relative="1" as="geometry">
            <mxPoint x="422.5" y="2160" as="sourcePoint" />
            <mxPoint x="472.5" y="2110" as="targetPoint" />
          </mxGeometry>
        </mxCell>
        <mxCell id="6OpeOHHLTcoQ0Xgv4RMJ-267" value="" style="endArrow=none;html=1;rounded=0;entryX=0;entryY=0.3333333333333333;entryDx=0;entryDy=0;entryPerimeter=0;exitX=0.961;exitY=0.382;exitDx=0;exitDy=0;exitPerimeter=0;" parent="1" source="6OpeOHHLTcoQ0Xgv4RMJ-268" target="6OpeOHHLTcoQ0Xgv4RMJ-258" edge="1">
          <mxGeometry width="50" height="50" relative="1" as="geometry">
            <mxPoint x="430" y="1070" as="sourcePoint" />
            <mxPoint x="350" y="1010" as="targetPoint" />
          </mxGeometry>
        </mxCell>
        <mxCell id="6OpeOHHLTcoQ0Xgv4RMJ-268" value="CONFIRMAR&lt;br&gt;CONSULTA" style="ellipse;whiteSpace=wrap;html=1;fontSize=8;" parent="1" vertex="1">
          <mxGeometry x="285" y="1160" width="59" height="40" as="geometry" />
        </mxCell>
        <mxCell id="6OpeOHHLTcoQ0Xgv4RMJ-272" value="" style="rounded=1;whiteSpace=wrap;html=1;fillColor=#B5FFE9;" parent="1" vertex="1">
          <mxGeometry x="414" y="1085" width="109" height="30" as="geometry" />
        </mxCell>
        <mxCell id="6OpeOHHLTcoQ0Xgv4RMJ-273" value="CLÍNICA" style="text;strokeColor=none;align=center;fillColor=none;html=1;verticalAlign=middle;whiteSpace=wrap;rounded=0;fontFamily=Verdana;fontSize=15;fontStyle=1" parent="1" vertex="1">
          <mxGeometry x="437.5" y="1080" width="75" height="40" as="geometry" />
        </mxCell>
        <mxCell id="6OpeOHHLTcoQ0Xgv4RMJ-274" value="" style="rounded=1;whiteSpace=wrap;html=1;fillColor=#B5FFE9;" parent="1" vertex="1">
          <mxGeometry x="432.5" y="2170" width="109" height="30" as="geometry" />
        </mxCell>
        <mxCell id="6OpeOHHLTcoQ0Xgv4RMJ-275" value="CLÍNICA" style="text;strokeColor=none;align=center;fillColor=none;html=1;verticalAlign=middle;whiteSpace=wrap;rounded=0;fontFamily=Verdana;fontSize=15;fontStyle=1" parent="1" vertex="1">
          <mxGeometry x="450.5" y="2165" width="75" height="40" as="geometry" />
        </mxCell>
        <mxCell id="6OpeOHHLTcoQ0Xgv4RMJ-278" value="" style="endArrow=none;html=1;rounded=0;exitX=1;exitY=0.5;exitDx=0;exitDy=0;entryX=0;entryY=0.3333333333333333;entryDx=0;entryDy=0;entryPerimeter=0;" parent="1" source="6OpeOHHLTcoQ0Xgv4RMJ-242" target="6OpeOHHLTcoQ0Xgv4RMJ-279" edge="1">
          <mxGeometry width="50" height="50" relative="1" as="geometry">
            <mxPoint x="419" y="1786" as="sourcePoint" />
            <mxPoint x="463" y="1750.3333333333335" as="targetPoint" />
          </mxGeometry>
        </mxCell>
        <mxCell id="6OpeOHHLTcoQ0Xgv4RMJ-279" value="" style="shape=umlActor;verticalLabelPosition=bottom;verticalAlign=top;html=1;outlineConnect=0;" parent="1" vertex="1">
          <mxGeometry x="464" y="1727" width="42" height="70" as="geometry" />
        </mxCell>
        <mxCell id="6OpeOHHLTcoQ0Xgv4RMJ-280" value="RECEBER&lt;br style=&quot;font-size: 7px;&quot;&gt;PAGAMENTO" style="ellipse;whiteSpace=wrap;html=1;fontSize=7;" parent="1" vertex="1">
          <mxGeometry x="107.5" y="1682" width="64" height="44" as="geometry" />
        </mxCell>
        <mxCell id="6OpeOHHLTcoQ0Xgv4RMJ-285" style="edgeStyle=none;rounded=0;orthogonalLoop=1;jettySize=auto;html=1;dashed=1;" parent="1" source="6OpeOHHLTcoQ0Xgv4RMJ-281" target="6OpeOHHLTcoQ0Xgv4RMJ-280" edge="1">
          <mxGeometry relative="1" as="geometry" />
        </mxCell>
        <mxCell id="6OpeOHHLTcoQ0Xgv4RMJ-286" value="EXTENSÃO" style="edgeLabel;html=1;align=center;verticalAlign=middle;resizable=0;points=[];fontSize=5;" parent="6OpeOHHLTcoQ0Xgv4RMJ-285" vertex="1" connectable="0">
          <mxGeometry x="-0.1882" y="-1" relative="1" as="geometry">
            <mxPoint as="offset" />
          </mxGeometry>
        </mxCell>
        <mxCell id="6OpeOHHLTcoQ0Xgv4RMJ-281" value="CARTÃO DE&lt;br style=&quot;font-size: 7px;&quot;&gt;CRÉDITO" style="ellipse;whiteSpace=wrap;html=1;fontSize=7;" parent="1" vertex="1">
          <mxGeometry x="171.5" y="1746" width="49" height="39" as="geometry" />
        </mxCell>
        <mxCell id="6OpeOHHLTcoQ0Xgv4RMJ-287" value="" style="edgeStyle=none;rounded=0;orthogonalLoop=1;jettySize=auto;html=1;dashed=1;" parent="1" source="6OpeOHHLTcoQ0Xgv4RMJ-282" target="6OpeOHHLTcoQ0Xgv4RMJ-280" edge="1">
          <mxGeometry relative="1" as="geometry" />
        </mxCell>
        <mxCell id="6OpeOHHLTcoQ0Xgv4RMJ-288" value="EXTENSÃO" style="edgeLabel;html=1;align=center;verticalAlign=middle;resizable=0;points=[];fontSize=5;" parent="6OpeOHHLTcoQ0Xgv4RMJ-287" vertex="1" connectable="0">
          <mxGeometry x="-0.24" relative="1" as="geometry">
            <mxPoint as="offset" />
          </mxGeometry>
        </mxCell>
        <mxCell id="6OpeOHHLTcoQ0Xgv4RMJ-282" value="Á VISTA" style="ellipse;whiteSpace=wrap;html=1;fontSize=8;" parent="1" vertex="1">
          <mxGeometry x="66.5" y="1746" width="54" height="40" as="geometry" />
        </mxCell>
        <mxCell id="6OpeOHHLTcoQ0Xgv4RMJ-284" value="" style="endArrow=none;html=1;rounded=0;entryX=0.09;entryY=0.225;entryDx=0;entryDy=0;entryPerimeter=0;exitX=1;exitY=0.3333333333333333;exitDx=0;exitDy=0;exitPerimeter=0;" parent="1" source="6OpeOHHLTcoQ0Xgv4RMJ-215" target="6OpeOHHLTcoQ0Xgv4RMJ-280" edge="1">
          <mxGeometry width="50" height="50" relative="1" as="geometry">
            <mxPoint x="18.5" y="1596" as="sourcePoint" />
            <mxPoint x="183.5" y="1660" as="targetPoint" />
            <Array as="points" />
          </mxGeometry>
        </mxCell>
        <mxCell id="6OpeOHHLTcoQ0Xgv4RMJ-289" value="" style="endArrow=classic;html=1;rounded=0;" parent="1" edge="1">
          <mxGeometry width="50" height="50" relative="1" as="geometry">
            <mxPoint x="-6" y="2130" as="sourcePoint" />
            <mxPoint x="-6" y="1671" as="targetPoint" />
          </mxGeometry>
        </mxCell>
      </root>
    </mxGraphModel>
  </diagram>
</mxfile>
